<mxfile host="app.diagrams.net" modified="2024-03-28T09:46:53.456Z" agent="Mozilla/5.0 (Macintosh; Intel Mac OS X 10_15_7) AppleWebKit/537.36 (KHTML, like Gecko) Chrome/123.0.0.0 Safari/537.36" etag="4qxLAUmPoKyk6RAofEn_" version="24.2.0" type="github">
  <diagram id="yPxyJZ8AM_hMuL3Unpa9" name="gitflow">
    <mxGraphModel dx="1194" dy="646" grid="1" gridSize="10" guides="1" tooltips="1" connect="1" arrows="1" fold="1" page="1" pageScale="1" pageWidth="850" pageHeight="1100" math="0" shadow="0">
      <root>
        <mxCell id="0" />
        <mxCell id="1" parent="0" />
        <mxCell id="Gbndnya8ysfOxjVIe13T-186" style="edgeStyle=orthogonalEdgeStyle;rounded=0;orthogonalLoop=1;jettySize=auto;html=1;exitX=0.5;exitY=0;exitDx=0;exitDy=0;entryX=1;entryY=0.5;entryDx=0;entryDy=0;sketch=1;curveFitting=1;jiggle=2;" edge="1" parent="1" source="Gbndnya8ysfOxjVIe13T-178" target="Gbndnya8ysfOxjVIe13T-179">
          <mxGeometry relative="1" as="geometry" />
        </mxCell>
        <mxCell id="Gbndnya8ysfOxjVIe13T-187" value="send ip &amp;amp; public key" style="edgeLabel;html=1;align=center;verticalAlign=middle;resizable=0;points=[];shadow=1;sketch=1;jiggle=2;curveFitting=1;strokeColor=default;fontFamily=Helvetica;fontSize=12;fontColor=default;fillColor=default;" vertex="1" connectable="0" parent="Gbndnya8ysfOxjVIe13T-186">
          <mxGeometry x="-0.1999" y="-1" relative="1" as="geometry">
            <mxPoint as="offset" />
          </mxGeometry>
        </mxCell>
        <mxCell id="Gbndnya8ysfOxjVIe13T-178" value="" style="ellipse;whiteSpace=wrap;html=1;aspect=fixed;fontSize=10;fontColor=#333333;fillColor=#f5f5f5;strokeColor=#666666;sketch=1;curveFitting=1;jiggle=2;shadow=1;" vertex="1" parent="1">
          <mxGeometry x="440.03" y="230" width="20" height="20" as="geometry" />
        </mxCell>
        <mxCell id="Gbndnya8ysfOxjVIe13T-179" value="Detel&amp;nbsp;&lt;div&gt;Canister&lt;/div&gt;" style="whiteSpace=wrap;html=1;aspect=fixed;sketch=1;curveFitting=1;jiggle=2;shadow=1;" vertex="1" parent="1">
          <mxGeometry x="260.03" y="80" width="80" height="80" as="geometry" />
        </mxCell>
        <mxCell id="Gbndnya8ysfOxjVIe13T-181" value="" style="endArrow=classic;html=1;rounded=0;entryX=0;entryY=0.5;entryDx=0;entryDy=0;sketch=1;curveFitting=1;jiggle=2;shadow=1;" edge="1" parent="1" source="Gbndnya8ysfOxjVIe13T-177" target="Gbndnya8ysfOxjVIe13T-179">
          <mxGeometry width="50" height="50" relative="1" as="geometry">
            <mxPoint x="180.03" y="240" as="sourcePoint" />
            <mxPoint x="230.03" y="190" as="targetPoint" />
          </mxGeometry>
        </mxCell>
        <mxCell id="Gbndnya8ysfOxjVIe13T-184" value="send ip &amp;amp; public key" style="edgeLabel;html=1;align=center;verticalAlign=middle;resizable=0;points=[];" vertex="1" connectable="0" parent="Gbndnya8ysfOxjVIe13T-181">
          <mxGeometry x="-0.1458" y="4" relative="1" as="geometry">
            <mxPoint as="offset" />
          </mxGeometry>
        </mxCell>
        <mxCell id="Gbndnya8ysfOxjVIe13T-182" value="" style="endArrow=classic;html=1;rounded=0;entryX=0;entryY=0.5;entryDx=0;entryDy=0;sketch=1;curveFitting=1;jiggle=2;shadow=1;" edge="1" parent="1" target="Gbndnya8ysfOxjVIe13T-177">
          <mxGeometry width="50" height="50" relative="1" as="geometry">
            <mxPoint x="180.03" y="240" as="sourcePoint" />
            <mxPoint x="260" y="120" as="targetPoint" />
          </mxGeometry>
        </mxCell>
        <mxCell id="Gbndnya8ysfOxjVIe13T-177" value="" style="ellipse;whiteSpace=wrap;html=1;aspect=fixed;fontSize=10;fontColor=#333333;fillColor=#f5f5f5;strokeColor=#666666;sketch=1;curveFitting=1;jiggle=2;shadow=1;" vertex="1" parent="1">
          <mxGeometry x="160" y="230" width="20" height="20" as="geometry" />
        </mxCell>
        <mxCell id="Gbndnya8ysfOxjVIe13T-188" value="" style="shape=flexArrow;endArrow=classic;html=1;rounded=0;sketch=1;jiggle=2;curveFitting=1;strokeColor=default;align=center;verticalAlign=middle;fontFamily=Helvetica;fontSize=12;fontColor=default;labelBackgroundColor=default;edgeStyle=orthogonalEdgeStyle;" edge="1" parent="1">
          <mxGeometry width="50" height="50" relative="1" as="geometry">
            <mxPoint x="294.53999999999996" y="250" as="sourcePoint" />
            <mxPoint x="300.02" y="330" as="targetPoint" />
          </mxGeometry>
        </mxCell>
        <mxCell id="Gbndnya8ysfOxjVIe13T-189" value="" style="ellipse;whiteSpace=wrap;html=1;aspect=fixed;fontSize=10;fontColor=#333333;fillColor=#f5f5f5;strokeColor=#666666;sketch=1;curveFitting=1;jiggle=2;shadow=1;" vertex="1" parent="1">
          <mxGeometry x="160" y="400" width="20" height="20" as="geometry" />
        </mxCell>
        <mxCell id="Gbndnya8ysfOxjVIe13T-190" value="" style="ellipse;whiteSpace=wrap;html=1;aspect=fixed;fontSize=10;fontColor=#333333;fillColor=#f5f5f5;strokeColor=#666666;sketch=1;curveFitting=1;jiggle=2;shadow=1;" vertex="1" parent="1">
          <mxGeometry x="440.03" y="400" width="20" height="20" as="geometry" />
        </mxCell>
        <mxCell id="Gbndnya8ysfOxjVIe13T-194" value="" style="endArrow=classic;startArrow=classic;html=1;rounded=0;sketch=1;jiggle=2;curveFitting=1;strokeColor=default;align=center;verticalAlign=middle;fontFamily=Helvetica;fontSize=12;fontColor=default;labelBackgroundColor=default;edgeStyle=orthogonalEdgeStyle;entryX=0;entryY=0.5;entryDx=0;entryDy=0;" edge="1" parent="1" target="Gbndnya8ysfOxjVIe13T-190">
          <mxGeometry width="50" height="50" relative="1" as="geometry">
            <mxPoint x="180" y="410" as="sourcePoint" />
            <mxPoint x="230" y="360" as="targetPoint" />
          </mxGeometry>
        </mxCell>
        <mxCell id="Gbndnya8ysfOxjVIe13T-195" value="establish websocket&lt;div&gt;&amp;amp;&lt;/div&gt;&lt;div&gt;send message&lt;/div&gt;" style="edgeLabel;html=1;align=center;verticalAlign=middle;resizable=0;points=[];shadow=1;sketch=1;jiggle=2;curveFitting=1;strokeColor=default;fontFamily=Helvetica;fontSize=12;fontColor=default;fillColor=default;" vertex="1" connectable="0" parent="Gbndnya8ysfOxjVIe13T-194">
          <mxGeometry x="0.0248" y="3" relative="1" as="geometry">
            <mxPoint x="1" as="offset" />
          </mxGeometry>
        </mxCell>
        <mxCell id="Gbndnya8ysfOxjVIe13T-196" value="&lt;h1 style=&quot;margin-top: 0px;&quot;&gt;Step 1&lt;/h1&gt;&lt;div&gt;user登陆后，向canister发送自己的ip和临时生成的公钥【v1版本不做信息保存；v2版本做】&lt;/div&gt;" style="text;html=1;whiteSpace=wrap;overflow=hidden;rounded=0;fontFamily=Helvetica;fontSize=12;fontColor=default;" vertex="1" parent="1">
          <mxGeometry x="550" y="100" width="180" height="120" as="geometry" />
        </mxCell>
        <mxCell id="Gbndnya8ysfOxjVIe13T-197" value="&lt;h1 style=&quot;margin-top: 0px;&quot;&gt;Step 2&lt;/h1&gt;&lt;div&gt;user通过指定用户的user name【独一无二】获取用户的ip&lt;/div&gt;" style="text;html=1;whiteSpace=wrap;overflow=hidden;rounded=0;fontFamily=Helvetica;fontSize=12;fontColor=default;" vertex="1" parent="1">
          <mxGeometry x="530" y="350" width="180" height="120" as="geometry" />
        </mxCell>
      </root>
    </mxGraphModel>
  </diagram>
</mxfile>
